Coordinates
version=1
nRows=19
nColumns=36
inDegrees=yes

Units are S.I. units (second, meters, Newtons, ...)
If the header above contains a line with 'inDegrees', this indicates whether rotational values are in degrees (yes) or radians (no).

endheader
time	pelvis_tilt	pelvis_list	pelvis_rotation	pelvis_tx	pelvis_ty	pelvis_tz	hip_flexion_r	hip_adduction_r	hip_rotation_r	knee_angle_r	knee_angle_r_beta	ankle_angle_r	subtalar_angle_r	mtp_angle_r	hip_flexion_l	hip_adduction_l	hip_rotation_l	knee_angle_l	knee_angle_l_beta	ankle_angle_l	subtalar_angle_l	mtp_angle_l	lumbar_extension	lumbar_bending	lumbar_rotation	arm_flex_r	arm_add_r	arm_rot_r	elbow_flex_r	pro_sup_r	arm_flex_l	arm_add_l	arm_rot_l	elbow_flex_l	pro_sup_l
      2.60000000	     -2.99552473	     -4.77107087	     -4.75039846	      0.97554066	      0.93168947	      0.13271752	     37.10790675	     -3.74784781	     -0.22490921	     38.36594980	      0.66961214	      8.89595016	     -6.23543685	     -7.49999937	     10.40383661	      2.96161765	     13.08553614	     22.49462134	      0.39260521	     14.52587646	    -11.02357373	     -7.49999937	     -5.30913497	      6.85651231	     -2.36587200	     58.65467587	      2.04699465	     68.13986454	    116.71500493	     84.05415891	     68.93018758	    -12.23503403	     69.07091251	    124.31209584	     94.54088283
      2.61666670	     -3.00792279	     -5.09604211	     -4.84562554	      0.97612016	      0.93387292	      0.13280069	     36.58352690	     -3.41830912	     -0.24347874	     38.85582795	      0.67816213	      9.19110203	     -6.77378613	     -7.49999939	      9.79377504	      2.44250302	     12.74348236	     21.63747707	      0.37764522	     14.69931507	    -10.17608882	     -7.49999939	     -4.84560491	      7.11712552	     -2.29950782	     58.32817476	      2.00336730	     68.12118660	    116.75011194	     84.31521905	     67.87202572	    -11.96861129	     67.87211719	    123.95550762	     94.78859562
      2.63333330	     -3.13627219	     -5.37215280	     -4.86801370	      0.97625002	      0.93520981	      0.13233463	     36.16936793	     -3.19749387	     -0.37246893	     39.34548444	      0.68670825	      9.58791878	     -7.08488483	     -7.49999939	      9.51243214	      2.04486626	     12.65707288	     21.14384943	      0.36902979	     14.62405912	    -10.06635818	     -7.49999939	     -4.42491365	      7.25479787	     -2.51220324	     58.13717987	      1.99994782	     68.13075145	    116.82694641	     84.33278880	     67.56695734	    -11.91474412	     67.83329918	    123.87170539	     94.80895604
      2.65000000	     -3.20398036	     -5.58695816	     -4.87978466	      0.97698164	      0.93448742	      0.13185818	     35.66397473	     -3.10737196	     -0.45915850	     39.79910846	      0.69462548	     10.02692038	     -7.46162489	     -7.49999939	      9.19279606	      1.76700985	     12.49831753	     20.70345834	      0.36134351	     14.55037149	     -9.89011221	     -7.49999939	     -4.09565093	      7.37677991	     -2.71281749	     57.89044306	      1.77107700	     68.01517167	    116.80441357	     84.33947729	     67.08328611	    -11.93003102	     67.67238160	    123.72030469	     94.82429692
      2.66666670	     -3.09840371	     -5.88459720	     -4.94469438	      0.98134281	      0.93496939	      0.13449334	     34.50988388	     -2.79848571	     -0.41953485	     40.26220338	      0.70270801	     10.35839183	     -8.03580061	     -7.49999940	      8.54710483	      1.29814163	     12.09913779	     20.10981068	      0.35098241	     14.38713314	     -9.28329283	     -7.49999940	     -3.64370109	      7.55402437	     -2.70309250	     56.98519972	      1.78852813	     67.35173106	    116.52319744	     84.32248403	     65.70083751	    -11.83696018	     66.84255387	    123.45521361	     94.87358557
      2.68333330	     -3.18308787	     -6.09815338	     -4.90578311	      0.98165446	      0.93438084	      0.13425962	     33.86448555	     -2.67441917	     -0.54099903	     41.00433660	      0.71566068	     10.54672020	     -8.30540773	     -7.49999940	      8.39337472	      1.03100023	     11.98457904	     19.93056972	      0.34785406	     14.48102630	     -9.22409451	     -7.49999940	     -3.28429649	      7.59248479	     -2.86496106	     56.83802000	      1.85595530	     67.24187338	    116.41300210	     84.31733107	     65.41613370	    -11.50137919	     66.88370034	    123.60774527	     94.89213261
      2.70000000	     -3.16265004	     -6.12243226	     -4.91463546	      0.98191784	      0.93654033	      0.13447453	     33.04706395	     -2.72329790	     -0.76395004	     41.54303347	      0.72506272	     10.72988961	     -8.85122179	     -7.49999940	      8.07222791	      0.91903392	     11.53373617	     19.58192326	      0.34176903	     14.67579630	     -8.47051709	     -7.49999940	     -3.12417720	      7.37528037	     -3.15451345	     56.09872070	      2.17496216	     66.48460999	    115.60456160	     84.23367783	     64.79405084	    -11.40709805	     66.44317069	    123.07691529	     94.95953939
      2.71666670	     -3.40655900	     -6.28400928	     -5.03060256	      0.98257445	      0.93156215	      0.13460707	     32.45841706	     -2.56965981	     -1.18288527	     42.43836365	      0.74068917	     10.89358097	     -9.17006223	     -7.49999941	      8.27252620	      0.70704694	     11.13782881	     19.62962117	      0.34260152	     14.60743224	     -8.31899693	     -7.49999941	     -2.75226305	      7.38155841	     -3.45747843	     56.24257002	      2.40349714	     66.26924593	    115.54145363	     84.04653417	     64.99898680	    -11.24665219	     66.21566165	    122.80864981	     94.71759107
      2.73333330	     -3.58029783	     -6.41208766	     -5.09550459	      0.98299279	      0.92915891	      0.13487456	     31.80925981	     -2.54703930	     -1.52660830	     43.17414945	      0.75353106	     10.85901970	     -9.33836682	     -7.49999941	      8.30845589	      0.53673762	     10.81191593	     19.54213278	      0.34107456	     14.64667573	     -8.30890050	     -7.49999941	     -2.37858356	      7.26123729	     -3.81297646	     56.33659742	      2.71711597	     66.17730210	    115.68588095	     84.03479967	     65.28192702	    -10.98007509	     66.03894594	    122.83991390	     94.70805892
      2.75000000	     -3.69166986	     -6.21393605	     -5.04948860	      0.98747810	      0.92938846	      0.13777240	     31.05837717	     -2.86740877	     -1.79216585	     43.50660026	      0.75933342	     10.84278093	     -9.73675812	     -7.49999941	      8.22856662	      0.67836406	     10.46907857	     19.37612129	      0.33817711	     14.75817249	     -7.81475638	     -7.49999941	     -1.85603660	      6.66858908	     -4.20863782	     55.77564326	      3.25389988	     66.12800973	    116.18540753	     83.69258529	     64.82318062	    -11.25382953	     65.81702652	    123.04470354	     94.65192758
      2.76666670	     -3.71802115	     -6.15507505	     -5.04993196	      0.98790797	      0.93145482	      0.13770840	     30.07450994	     -2.93574559	     -2.12067072	     43.60383896	      0.76103056	     10.96577308	    -10.06480468	     -7.49999942	      8.00225144	      0.61972629	     10.05863038	     19.17195220	      0.33461369	     14.89495581	     -7.17260480	     -7.49999942	     -1.56662480	      6.20359266	     -4.32274982	     54.95705664	      3.57230542	     66.46539510	    116.45632121	     83.69487818	     64.01069086	    -11.51743803	     65.87872925	    123.14454535	     94.60937380
      2.78333330	     -3.78934905	     -6.18502901	     -4.94731563	      0.99287751	      0.93595130	      0.14029550	     28.70399075	     -2.92476009	     -2.82531372	     43.36293972	      0.75682607	     10.71089697	    -10.40275576	     -7.49999943	      7.69317225	      0.39671320	      9.49301985	     18.86301210	      0.32922167	     14.75304105	     -6.53380209	     -7.49999943	     -1.03902604	      6.01168684	     -4.17473171	     53.81697525	      3.49362943	     66.61925913	    116.43660330	     83.66809135	     62.65998744	    -11.88265733	     66.20012326	    123.55646205	     94.50212659
      2.80000000	     -3.92057979	     -6.16718679	     -4.87287886	      0.99733694	      0.93357976	      0.14278756	     27.29415291	     -2.87636448	     -3.47975676	     43.01244532	      0.75070879	     10.11093501	    -10.86285178	     -7.49999943	      7.32537210	      0.20611307	      9.04092792	     18.46070855	      0.32220015	     14.49684457	     -5.92400024	     -7.49999943	     -0.36467327	      5.64007988	     -4.21762131	     52.75481019	      4.02769807	     66.88551389	    116.89018630	     83.63410324	     61.56263878	    -11.94176279	     66.35986391	    123.82816377	     94.33530431
      2.81666670	     -4.03264876	     -6.32738261	     -4.85555345	      0.99755611	      0.93552184	      0.14274347	     25.45224662	     -2.45082275	     -4.13740119	     42.19100134	      0.73637189	      8.70550696	    -12.10418828	     -7.49999944	      7.12477355	     -0.19907161	      8.40618309	     18.33204126	      0.31995448	     14.35612064	     -5.11524060	     -7.49999944	      0.11706698	      5.58881665	     -4.09366793	     51.89494972	      4.19375948	     66.79748413	    117.00220554	     83.67881435	     60.44317213	    -12.02651829	     66.11043501	    124.08444258	     94.22228565
      2.83333330	     -4.25198755	     -6.27431132	     -4.93133395	      1.00608602	      0.93809241	      0.14317063	     23.77226370	     -2.30736113	     -4.69619588	     40.90822275	      0.71398318	      7.69225584	    -12.92857694	     -7.49999944	      6.78245916	     -0.30798684	      8.02490824	     17.93028154	      0.31294245	     14.13000362	     -4.61733623	     -7.49999944	      0.89122427	      5.31048049	     -3.80517043	     50.47010321	      4.05318420	     67.06282937	    117.33696294	     83.45288923	     58.74799249	    -12.05963020	     66.34071078	    124.56755748	     94.52667784
      2.85000000	     -4.15510049	     -6.28094456	     -4.96263809	      1.00591814	      0.93369220	      0.14295917	     21.90759128	     -2.05899300	     -4.97761289	     40.05760279	      0.69913706	      6.37242789	    -14.13064934	     -7.49999945	      6.50728674	     -0.43065979	      7.46706023	     18.16155212	      0.31697888	     14.38231733	     -3.77919506	     -7.49999945	      1.18003283	      5.06756727	     -3.50099842	     49.71951495	      3.77063129	     66.87335965	    117.61400502	     83.63858010	     58.15190062	    -11.54267524	     66.06558680	    124.54678225	     94.41430076
      2.86666670	     -4.24816390	     -6.14334346	     -5.05608146	      1.00589687	      0.93349748	      0.14289443	     20.49436668	     -1.97884174	     -5.00096996	     39.19055446	      0.68400421	      5.50714769	    -15.08029902	     -7.49999946	      6.60624453	     -0.35351032	      7.04395839	     18.56249760	      0.32397670	     14.62465640	     -3.23152579	     -7.49999946	      1.60052680	      4.65375704	     -3.15420431	     49.14123248	      3.50960760	     66.84644027	    118.05113552	     83.76598473	     57.91824485	    -11.12966054	     66.40863241	    124.66518147	     94.15672439
      2.88333330	     -4.34736036	     -6.09599127	     -5.02699133	      1.00607348	      0.93328778	      0.14263842	     18.95042022	     -1.82275509	     -5.26456001	     38.58762163	      0.67348105	      4.63672694	    -15.65999728	     -7.49999947	      6.94653025	     -0.34093037	      6.84578529	     19.19414981	      0.33500111	     14.58264330	     -3.18041943	     -7.49999947	      1.87467325	      4.40741307	     -2.93891255	     48.67652388	      3.15776522	     66.93845035	    118.36705704	     83.70594696	     57.65985680	    -11.01463474	     66.58500006	    124.70051728	     93.87485645
      2.90000000	     -4.36558945	     -5.84344255	     -4.98610794	      1.01016362	      0.93165712	      0.14566493	     17.56466412	     -1.81524502	     -5.15507158	     37.59251880	      0.65611323	      4.31233590	    -16.74012486	     -7.49999949	      7.04999796	     -0.13069319	      6.59666645	     19.67143368	      0.34333129	     14.81968041	     -2.65958796	     -7.49999949	      2.14430489	      3.84034878	     -2.56536087	     47.93456383	      3.20359432	     66.47833826	    118.35274413	     83.33353881	     57.59414843	    -10.98633754	     67.20141188	    125.04968309	     93.24726592
